<svg xmlns="http://www.w3.org/2000/svg" xmlns:xlink="http://www.w3.org/1999/xlink" width="2000" zoomAndPan="magnify" viewBox="0 0 1500 1499.999933" height="2000" preserveAspectRatio="xMidYMid meet" version="1.0"><defs><g/><clipPath id="a75665d52e"><path d="M 816 317 L 1271.800781 317 L 1271.800781 447 L 816 447 Z M 816 317 " clip-rule="nonzero"/></clipPath><clipPath id="860cd245f0"><path d="M 1 0.441406 L 455.800781 0.441406 L 455.800781 129 L 1 129 Z M 1 0.441406 " clip-rule="nonzero"/></clipPath><clipPath id="9f87646f81"><rect x="0" width="456" y="0" height="130"/></clipPath><clipPath id="c37b3b9745"><rect x="0" width="1272" y="0" height="764"/></clipPath></defs><g transform="matrix(1, 0, 0, 1, 107, 368)"><g clip-path="url(#c37b3b9745)"><g fill="#38b6ff" fill-opacity="1"><g transform="translate(1.244548, 609.526852)"><g><path d="M 212.0625 -243.8125 C 212.0625 -229 209.835938 -216.300781 205.390625 -205.71875 C 200.953125 -195.132812 195.132812 -186.347656 187.9375 -179.359375 C 180.738281 -172.378906 172.269531 -167.300781 162.53125 -164.125 C 152.800781 -160.957031 142.644531 -159.375 132.0625 -159.375 L 100.3125 -159.375 L 100.3125 0 L 18.40625 0 L 18.40625 -422.875 L 132.0625 -422.875 C 142.644531 -422.875 152.800781 -421.285156 162.53125 -418.109375 C 172.269531 -414.929688 180.738281 -409.847656 187.9375 -402.859375 C 195.132812 -395.878906 200.953125 -387.097656 205.390625 -376.515625 C 209.835938 -365.929688 212.0625 -353.234375 212.0625 -338.421875 Z M 135.234375 -335.25 C 135.234375 -342.445312 133.960938 -347.421875 131.421875 -350.171875 C 128.890625 -352.921875 125.296875 -354.296875 120.640625 -354.296875 L 100.3125 -354.296875 L 100.3125 -222.234375 L 120.640625 -222.234375 C 130.367188 -222.234375 135.234375 -228.367188 135.234375 -240.640625 Z M 135.234375 -335.25 "/></g></g></g><g fill="#38b6ff" fill-opacity="1"><g transform="translate(205.057726, 609.526852)"><g><path d="M 18.40625 0 L 18.40625 -422.875 L 190.484375 -422.875 L 190.484375 -351.125 L 99.6875 -351.125 L 99.6875 -250.171875 L 159.375 -250.171875 L 159.375 -184.125 L 99.6875 -184.125 L 99.6875 -74.28125 L 190.484375 -74.28125 L 190.484375 0 Z M 18.40625 0 "/></g></g></g><g fill="#38b6ff" fill-opacity="1"><g transform="translate(387.283232, 609.526852)"><g><path d="M 156.1875 0 C 152.800781 0 149.941406 -2.113281 147.609375 -6.34375 C 145.285156 -10.582031 143.273438 -15.976562 141.578125 -22.53125 C 139.890625 -29.09375 138.625 -36.179688 137.78125 -43.796875 C 136.9375 -51.421875 136.515625 -58.625 136.515625 -65.40625 L 136.515625 -149.84375 C 136.515625 -155.34375 135.132812 -160.421875 132.375 -165.078125 C 129.625 -169.734375 125.289062 -172.0625 119.375 -172.0625 L 100.3125 -172.0625 L 100.3125 0 L 18.40625 0 L 18.40625 -422.875 L 131.4375 -422.875 C 141.59375 -422.875 151.535156 -421.285156 161.265625 -418.109375 C 171.003906 -414.929688 179.679688 -409.957031 187.296875 -403.1875 C 194.921875 -396.414062 201.0625 -387.84375 205.71875 -377.46875 C 210.375 -367.101562 212.703125 -354.9375 212.703125 -340.96875 L 212.703125 -256.515625 C 212.703125 -245.929688 209.738281 -236.085938 203.8125 -226.984375 C 197.882812 -217.890625 189.628906 -210.378906 179.046875 -204.453125 C 189.628906 -198.523438 198.09375 -191.007812 204.4375 -181.90625 C 210.789062 -172.8125 213.96875 -162.972656 213.96875 -152.390625 L 213.96875 -70.484375 C 213.96875 -56.929688 215.023438 -44.648438 217.140625 -33.640625 C 219.265625 -22.640625 221.804688 -12.0625 224.765625 -1.90625 L 224.765625 0 Z M 134.609375 -335.25 C 134.609375 -342.445312 133.441406 -347.421875 131.109375 -350.171875 C 128.785156 -352.921875 125.296875 -354.296875 120.640625 -354.296875 L 100.3125 -354.296875 L 100.3125 -234.921875 L 120.640625 -234.921875 C 125.296875 -234.921875 128.785156 -236.296875 131.109375 -239.046875 C 133.441406 -241.804688 134.609375 -246.78125 134.609375 -253.96875 Z M 134.609375 -335.25 "/></g></g></g><g fill="#38b6ff" fill-opacity="1"><g transform="translate(598.080612, 609.526852)"><g><path d="M 209.53125 -98.421875 C 209.53125 -81.910156 206.988281 -66.988281 201.90625 -53.65625 C 196.832031 -40.320312 189.847656 -29.101562 180.953125 -20 C 172.066406 -10.894531 161.484375 -3.910156 149.203125 0.953125 C 136.929688 5.816406 123.8125 8.25 109.84375 8.25 C 78.09375 8.25 53.4375 -0.425781 35.875 -17.78125 C 18.3125 -35.132812 9.53125 -59.6875 9.53125 -91.4375 L 9.53125 -128.25 L 80 -128.25 L 80 -88.890625 C 80 -80.421875 82.21875 -73.539062 86.65625 -68.25 C 91.101562 -62.957031 97.5625 -60.3125 106.03125 -60.3125 C 122.539062 -60.3125 130.796875 -69.625 130.796875 -88.25 C 130.796875 -105.601562 126.242188 -121.476562 117.140625 -135.875 C 108.046875 -150.269531 96.300781 -166.351562 81.90625 -184.125 C 73.863281 -193.019531 65.710938 -202.757812 57.453125 -213.34375 C 49.203125 -223.925781 41.691406 -235.140625 34.921875 -246.984375 C 28.148438 -258.835938 22.539062 -271.21875 18.09375 -284.125 C 13.644531 -297.039062 11.421875 -310.0625 11.421875 -323.1875 C 11.421875 -337.570312 13.535156 -351.21875 17.765625 -364.125 C 22.003906 -377.039062 28.359375 -388.472656 36.828125 -398.421875 C 45.296875 -408.367188 55.878906 -416.195312 68.578125 -421.90625 C 81.273438 -427.625 96.300781 -430.484375 113.65625 -430.484375 C 141.164062 -430.484375 163.28125 -421.488281 180 -403.5 C 196.71875 -385.507812 205.078125 -361.488281 205.078125 -331.4375 L 205.078125 -294.609375 L 134.609375 -294.609375 L 134.609375 -336.515625 C 134.609375 -344.140625 132.597656 -350.066406 128.578125 -354.296875 C 124.554688 -358.523438 119.582031 -360.640625 113.65625 -360.640625 C 107.726562 -360.640625 102.328125 -358.628906 97.453125 -354.609375 C 92.585938 -350.585938 90.15625 -344.34375 90.15625 -335.875 C 90.15625 -325.71875 91.316406 -316.722656 93.640625 -308.890625 C 95.972656 -301.066406 99.363281 -293.554688 103.8125 -286.359375 C 108.257812 -279.160156 113.550781 -271.859375 119.6875 -264.453125 C 125.820312 -257.046875 132.488281 -248.472656 139.6875 -238.734375 C 148.15625 -228.578125 156.617188 -218.097656 165.078125 -207.296875 C 173.546875 -196.503906 181.0625 -185.285156 187.625 -173.640625 C 194.1875 -162.003906 199.476562 -149.941406 203.5 -137.453125 C 207.519531 -124.972656 209.53125 -111.960938 209.53125 -98.421875 Z M 209.53125 -98.421875 "/></g></g></g><g fill="#38b6ff" fill-opacity="1"><g transform="translate(798.719225, 609.526852)"><g><path d="M 18.40625 0 L 18.40625 -422.875 L 190.484375 -422.875 L 190.484375 -351.125 L 99.6875 -351.125 L 99.6875 -250.171875 L 159.375 -250.171875 L 159.375 -184.125 L 99.6875 -184.125 L 99.6875 -74.28125 L 190.484375 -74.28125 L 190.484375 0 Z M 18.40625 0 "/></g></g></g><g clip-path="url(#a75665d52e)"><g transform="matrix(1, 0, 0, 1, 816, 317)"><g clip-path="url(#9f87646f81)"><g clip-path="url(#860cd245f0)"><path fill="#ffde59" d="M 1.128906 0.835938 L 455.671875 0.835938 L 455.671875 128.414062 L 1.128906 128.414062 L 1.128906 0.835938 " fill-opacity="1" fill-rule="nonzero"/></g><g fill="#253238" fill-opacity="1"><g transform="translate(32.709541, 92.374843)"><g><path d="M 9 -55.25 L 31.5 -55.25 C 37.34375 -55.25 42.5 -54.078125 46.96875 -51.734375 C 51.4375 -49.398438 54.90625 -46.140625 57.375 -41.953125 C 59.851562 -37.773438 61.09375 -33 61.09375 -27.625 C 61.09375 -22.257812 59.851562 -17.484375 57.375 -13.296875 C 54.90625 -9.117188 51.4375 -5.859375 46.96875 -3.515625 C 42.5 -1.171875 37.34375 0 31.5 0 L 9 0 Z M 31.1875 -5.046875 C 36.019531 -5.046875 40.253906 -6.003906 43.890625 -7.921875 C 47.523438 -9.847656 50.335938 -12.507812 52.328125 -15.90625 C 54.328125 -19.300781 55.328125 -23.207031 55.328125 -27.625 C 55.328125 -32.050781 54.328125 -35.957031 52.328125 -39.34375 C 50.335938 -42.738281 47.523438 -45.394531 43.890625 -47.3125 C 40.253906 -49.238281 36.019531 -50.203125 31.1875 -50.203125 L 14.84375 -50.203125 L 14.84375 -5.046875 Z M 31.1875 -5.046875 "/></g></g></g><g fill="#253238" fill-opacity="1"><g transform="translate(108.175251, 92.374843)"><g><path d="M 9 -55.25 L 14.84375 -55.25 L 14.84375 0 L 9 0 Z M 9 -55.25 "/></g></g></g><g fill="#253238" fill-opacity="1"><g transform="translate(142.277767, 92.374843)"><g><path d="M 47.921875 -27.625 L 53.515625 -27.625 L 53.515625 -6.546875 C 50.941406 -4.285156 47.890625 -2.550781 44.359375 -1.34375 C 40.835938 -0.132812 37.128906 0.46875 33.234375 0.46875 C 27.703125 0.46875 22.726562 -0.738281 18.3125 -3.15625 C 13.894531 -5.570312 10.421875 -8.925781 7.890625 -13.21875 C 5.367188 -17.507812 4.109375 -22.3125 4.109375 -27.625 C 4.109375 -32.9375 5.367188 -37.738281 7.890625 -42.03125 C 10.421875 -46.320312 13.894531 -49.675781 18.3125 -52.09375 C 22.726562 -54.519531 27.726562 -55.734375 33.3125 -55.734375 C 37.519531 -55.734375 41.382812 -55.0625 44.90625 -53.71875 C 48.4375 -52.375 51.410156 -50.382812 53.828125 -47.75 L 50.203125 -44.046875 C 45.835938 -48.359375 40.285156 -50.515625 33.546875 -50.515625 C 29.078125 -50.515625 25.039062 -49.523438 21.4375 -47.546875 C 17.832031 -45.578125 15.003906 -42.84375 12.953125 -39.34375 C 10.898438 -35.84375 9.875 -31.9375 9.875 -27.625 C 9.875 -23.3125 10.898438 -19.414062 12.953125 -15.9375 C 15.003906 -12.46875 17.816406 -9.734375 21.390625 -7.734375 C 24.972656 -5.734375 29 -4.734375 33.46875 -4.734375 C 39.15625 -4.734375 43.972656 -6.15625 47.921875 -9 Z M 47.921875 -27.625 "/></g></g></g><g fill="#253238" fill-opacity="1"><g transform="translate(213.559793, 92.374843)"><g><path d="M 9 -55.25 L 14.84375 -55.25 L 14.84375 0 L 9 0 Z M 9 -55.25 "/></g></g></g><g fill="#253238" fill-opacity="1"><g transform="translate(247.662309, 92.374843)"><g><path d="M 19.734375 -50.203125 L 0.3125 -50.203125 L 0.3125 -55.25 L 45 -55.25 L 45 -50.203125 L 25.578125 -50.203125 L 25.578125 0 L 19.734375 0 Z M 19.734375 -50.203125 "/></g></g></g><g fill="#253238" fill-opacity="1"><g transform="translate(300.472728, 92.374843)"><g><path d="M 43.65625 -14.765625 L 12.859375 -14.765625 L 6.234375 0 L 0.15625 0 L 25.421875 -55.25 L 31.1875 -55.25 L 56.4375 0 L 50.28125 0 Z M 41.515625 -19.5 L 28.265625 -49.171875 L 15 -19.5 Z M 41.515625 -19.5 "/></g></g></g><g fill="#253238" fill-opacity="1"><g transform="translate(367.334269, 92.374843)"><g><path d="M 9 -55.25 L 14.84375 -55.25 L 14.84375 -5.046875 L 45.78125 -5.046875 L 45.78125 0 L 9 0 Z M 9 -55.25 "/></g></g></g></g></g></g></g></g></svg>